<svg width="215" height="62" viewBox="0 0 215 62" fill="none" xmlns="http://www.w3.org/2000/svg">
<path fill-rule="evenodd" clip-rule="evenodd" d="M27.7731 61.2889C43.1117 61.2889 55.5462 48.9121 55.5462 33.6444C55.5462 18.3768 43.1117 6 27.7731 6C12.4344 6 0 18.3768 0 33.6444C0 48.9121 12.4344 61.2889 27.7731 61.2889ZM45.8846 41.1134C46.8695 38.7467 47.3764 36.21 47.3764 33.6482H27.7781L8.17969 33.6482C8.17969 36.21 8.68661 38.7467 9.67152 41.1134C10.6564 43.4802 12.1 45.6307 13.9199 47.4422C15.7398 49.2536 17.9003 50.6905 20.2781 51.6709C22.6559 52.6512 25.2044 53.1558 27.7781 53.1558C30.3517 53.1558 32.9002 52.6512 35.278 51.6709C37.6558 50.6905 39.8163 49.2536 41.6362 47.4422C43.4561 45.6307 44.8997 43.4802 45.8846 41.1134Z" fill="white"/>
<path d="M74.9132 30H70.1922V12.1173H74.9132V19.1511H81.1483V12.1173H85.8694V30H81.1483V23.2642H74.9132V30ZM88.2657 30V12.1173H99.7106V16.2303H92.9867V18.9962H99.2338V23.1092H92.9867V30H88.2657ZM104.897 30H99.9491L106.935 12.1173H111.883L118.857 30H113.91L112.753 26.8169H106.053L104.897 30ZM107.555 22.7038H111.263L109.403 17.6013L107.555 22.7038ZM128.883 30H123.936L116.95 12.1173H121.897L126.404 24.516L130.91 12.1173H135.858L128.883 30ZM141.89 12.1173V30H137.169V12.1173H141.89ZM159.749 30H154.527L151.118 24.0868H148.995V30H144.274V12.1173H151.475C153.025 12.1173 154.344 12.3517 155.433 12.8206C156.522 13.2896 157.353 13.9731 157.925 14.8712C158.505 15.7614 158.795 16.8383 158.795 18.102C158.795 19.2863 158.541 20.3076 158.032 21.1659C157.524 22.0243 156.788 22.6999 155.827 23.1926L159.749 30ZM148.995 20.4506H151.106C152.051 20.4506 152.763 20.2758 153.24 19.9261C153.724 19.5684 153.967 19.0399 153.967 18.3405C153.967 17.641 153.724 17.1165 153.24 16.7668C152.763 16.4091 152.051 16.2303 151.106 16.2303H148.995V20.4506ZM161.18 30V12.1173H173.101V16.2303H165.901V18.9962H172.625V23.1092H165.901V25.887H173.221V30H161.18ZM74.9132 37.1173V55H70.1922V37.1173H74.9132ZM81.1722 55H76.2246L83.2108 37.1173H88.1584L95.1326 55H90.1851L89.0287 51.8169H82.3286L81.1722 55ZM83.8308 47.7038H87.5384L85.6786 42.6013L83.8308 47.7038ZM112.229 37.1173V46.9289C112.229 48.6775 111.907 50.1836 111.263 51.4473C110.627 52.7031 109.709 53.6687 108.509 54.3443C107.317 55.0199 105.886 55.3577 104.217 55.3577C102.556 55.3577 101.125 55.0199 99.9252 54.3443C98.7251 53.6687 97.8031 52.7031 97.1594 51.4473C96.5235 50.1836 96.2056 48.6775 96.2056 46.9289V37.1173H100.927V46.2851C100.927 47.4217 101.042 48.3556 101.272 49.0868C101.511 49.818 101.872 50.3624 102.357 50.7201C102.842 51.0698 103.462 51.2446 104.217 51.2446C104.972 51.2446 105.592 51.0698 106.077 50.7201C106.562 50.3624 106.919 49.818 107.15 49.0868C107.388 48.3556 107.508 47.4217 107.508 46.2851V37.1173H112.229ZM119.334 37.1173V55H114.613V37.1173H119.334ZM132.579 55H127.632L120.645 37.1173H125.593L130.099 49.516L134.606 37.1173H139.553L132.579 55ZM161.585 55H156.363L152.954 49.0868H150.831V55H146.11V37.1173H153.311C154.861 37.1173 156.18 37.3517 157.269 37.8206C158.358 38.2896 159.189 38.9731 159.761 39.8712C160.341 40.7614 160.631 41.8383 160.631 43.102C160.631 44.2863 160.377 45.3076 159.868 46.1659C159.36 47.0243 158.624 47.6999 157.663 48.1926L161.585 55ZM150.831 45.4506H152.942C153.887 45.4506 154.599 45.2758 155.076 44.9261C155.56 44.5684 155.803 44.0399 155.803 43.3405C155.803 42.641 155.56 42.1165 155.076 41.7668C154.599 41.4091 153.887 41.2303 152.942 41.2303H150.831V45.4506ZM175.176 55H163.016V37.1173H167.737V50.887H175.176V55ZM191.556 37.1173V46.9289C191.556 48.6775 191.234 50.1836 190.591 51.4473C189.955 52.7031 189.037 53.6687 187.837 54.3443C186.645 55.0199 185.214 55.3577 183.545 55.3577C181.884 55.3577 180.453 55.0199 179.253 54.3443C178.053 53.6687 177.131 52.7031 176.487 51.4473C175.851 50.1836 175.533 48.6775 175.533 46.9289V37.1173H180.254V46.2851C180.254 47.4217 180.37 48.3556 180.6 49.0868C180.839 49.818 181.2 50.3624 181.685 50.7201C182.17 51.0698 182.79 51.2446 183.545 51.2446C184.3 51.2446 184.92 51.0698 185.405 50.7201C185.89 50.3624 186.247 49.818 186.478 49.0868C186.716 48.3556 186.835 47.4217 186.835 46.2851V37.1173H191.556ZM197.458 55H192.51L199.496 37.1173H204.444L211.418 55H206.471L205.314 51.8169H198.614L197.458 55ZM200.116 47.7038H203.824L201.964 42.6013L200.116 47.7038Z" fill="white"/>
<path d="M192 9C187.284 8.744 183.519 4.97326 183.271 0.256427L183.257 -3.82162e-07C183.001 4.8587 179.116 8.73855 174.256 8.98689L174 9L174.256 9.01311C179.116 9.26144 183.001 13.1413 183.257 18L183.271 17.7436C183.519 13.0267 187.284 9.25599 192 9Z" fill="white"/>
</svg>
